# xmcd
#
# Track frame offsets:
#	150
#	24543
#	47433
#	68900
#	87118
#	105428
#	127613
#	151508
#	174338
#	199910
#
# Disc length: 2923 seconds
#
# Revision: 65538
# Processed by: cddbd v1.5.2PL0 Copyright (c) Steve Scherf et al.
# Submitted via: EZCDAudioConverter 8.0.2.1
#
DISCID=690b690a
DTITLE=Various Artist - Dạ Vũ Trong Mắt Em
DYEAR=1990
DGENRE=World Pop
TTITLE0=Kiều Nga - Trăng thề
TTITLE1=Elvis Phương - Ngày đó
TTITLE2=Như Mai - Mưa
TTITLE3=Ngọc Lan - Làm sao em khóc
TTITLE4=Ngọc Minh - Khúc nhạc muôn đời
TTITLE5=Kiều Nga - Sa mạc tuổi trẻ
TTITLE6=Thúy Vi - Yêu một mình
TTITLE7=Tuấn Anh - Yêu nhau mãi
TTITLE8=Ngọc Lan - Suối nước mắt
TTITLE9=Ngọc Minh - Bài tango cho em
EXTD=
EXTT0=
EXTT1=
EXTT2=
EXTT3=
EXTT4=
EXTT5=
EXTT6=
EXTT7=
EXTT8=
EXTT9=
PLAYORDER=
